REM DIRINDEX 1\2,1\3,1\4,1\5,1\6,1\7,1\8
REM DIRNAME folder01,folder02,folder03,folder04,folder05,folder06,folder07,folder08
TITLE ""
FILE "46_Ch10_AtNight_Words.mp3" MP3
  TRACK 01 AUDIO
    TITLE "0:"
    INDEX 01 00:00:00
  TRACK 02 AUDIO
    TITLE "8:cjc152_2528"
    INDEX 01 00:00:01
  TRACK 03 AUDIO
    TITLE "0:"
    INDEX 01 00:02:51
  TRACK 04 AUDIO
    TITLE "8:cjc152_2529"
    INDEX 01 00:03:39
  TRACK 05 AUDIO
    TITLE "0:"
    INDEX 01 00:04:54
  TRACK 06 AUDIO
    TITLE "2:cjc152_2530"
    INDEX 01 00:05:48
  TRACK 07 AUDIO
    TITLE "0:"
    INDEX 01 00:06:73
  TRACK 08 AUDIO
    TITLE "2:cjc152_2531"
    INDEX 01 00:07:27
  TRACK 09 AUDIO
    TITLE "0:"
    INDEX 01 00:08:60
  TRACK 10 AUDIO
    TITLE "2:cjc152_2532"
    INDEX 01 00:09:53
  TRACK 11 AUDIO
    TITLE "0:"
    INDEX 01 00:11:58
  TRACK 12 AUDIO
    TITLE "2:cjc152_2533"
    INDEX 01 00:12:16
  TRACK 13 AUDIO
    TITLE "0:"
    INDEX 01 00:14:29
  TRACK 14 AUDIO
    TITLE "2:cjc152_2534"
    INDEX 01 00:15:23
  TRACK 15 AUDIO
    TITLE "0:"
    INDEX 01 00:16:32
  TRACK 16 AUDIO
    TITLE "2:cjc152_2535"
    INDEX 01 00:16:61
  TRACK 17 AUDIO
    TITLE "0:"
    INDEX 01 00:18:07
  TRACK 18 AUDIO
    TITLE "2:cjc152_2536"
    INDEX 01 00:19:01
  TRACK 19 AUDIO
    TITLE "0:"
    INDEX 01 00:20:00
  TRACK 20 AUDIO
    TITLE "2:cjc152_2537"
    INDEX 01 00:20:39
  TRACK 21 AUDIO
    TITLE "0:"
    INDEX 01 00:21:51
  TRACK 22 AUDIO
    TITLE "2:cjc152_2538"
    INDEX 01 00:22:42
  TRACK 23 AUDIO
    TITLE "0:"
    INDEX 01 00:23:50
  TRACK 24 AUDIO
    TITLE "2:cjc152_2539"
    INDEX 01 00:24:04
  TRACK 25 AUDIO
    TITLE "0:"
    INDEX 01 00:25:19
  TRACK 26 AUDIO
    TITLE "2:cjc152_2540"
    INDEX 01 00:26:13
  TRACK 27 AUDIO
    TITLE "0:"
    INDEX 01 00:27:20
  TRACK 28 AUDIO
    TITLE "2:cjc152_2541"
    INDEX 01 00:27:51
  TRACK 29 AUDIO
    TITLE "0:"
    INDEX 01 00:28:74
  TRACK 30 AUDIO
    TITLE "2:cjc152_2542"
    INDEX 01 00:29:66
  TRACK 31 AUDIO
    TITLE "0:"
    INDEX 01 00:30:55
  TRACK 32 AUDIO
    TITLE "2:cjc152_2543"
    INDEX 01 00:31:12
  TRACK 33 AUDIO
    TITLE "0:"
    INDEX 01 00:32:13
  TRACK 34 AUDIO
    TITLE "2:cjc152_2544"
    INDEX 01 00:33:07
  TRACK 35 AUDIO
    TITLE "0:"
    INDEX 01 00:34:45
  TRACK 36 AUDIO
    TITLE "2:cjc152_2545"
    INDEX 01 00:35:00
  TRACK 37 AUDIO
    TITLE "0:"
    INDEX 01 00:36:54
  TRACK 38 AUDIO
    TITLE "2:cjc152_2546"
    INDEX 01 00:37:48
  TRACK 39 AUDIO
    TITLE "0:"
    INDEX 01 00:38:49
  TRACK 40 AUDIO
    TITLE "2:cjc152_2547"
    INDEX 01 00:39:03
  TRACK 41 AUDIO
    TITLE "0:"
    INDEX 01 00:40:19
  TRACK 42 AUDIO
    TITLE "2:cjc152_2548"
    INDEX 01 00:41:12
  TRACK 43 AUDIO
    TITLE "0:"
    INDEX 01 00:42:21
  TRACK 44 AUDIO
    TITLE "2:cjc152_2549"
    INDEX 01 00:42:51
  TRACK 45 AUDIO
    TITLE "0:"
    INDEX 01 00:44:01
  TRACK 46 AUDIO
    TITLE "2:cjc152_2550"
    INDEX 01 00:44:69
  TRACK 47 AUDIO
    TITLE "0:"
    INDEX 01 00:45:59
  TRACK 48 AUDIO
    TITLE "2:cjc152_2551"
    INDEX 01 00:46:15
  TRACK 49 AUDIO
    TITLE "0:"
    INDEX 01 00:47:11
  TRACK 50 AUDIO
    TITLE "2:cjc152_2552"
    INDEX 01 00:48:12
  TRACK 51 AUDIO
    TITLE "0:"
    INDEX 01 00:49:23
  TRACK 52 AUDIO
    TITLE "2:cjc152_2553"
    INDEX 01 00:49:53
  TRACK 53 AUDIO
    TITLE "0:"
    INDEX 01 00:51:07
  TRACK 54 AUDIO
    TITLE "2:cjc152_2554"
    INDEX 01 00:52:00
  TRACK 55 AUDIO
    TITLE "0:"
    INDEX 01 00:53:27
  TRACK 56 AUDIO
    TITLE "2:cjc152_2555"
    INDEX 01 00:53:57
  TRACK 57 AUDIO
    TITLE "0:"
    INDEX 01 00:55:44
  TRACK 58 AUDIO
    TITLE "2:cjc152_2556"
    INDEX 01 00:56:35
  TRACK 59 AUDIO
    TITLE "0:"
    INDEX 01 00:58:01
  TRACK 60 AUDIO
    TITLE "2:cjc152_2557"
    INDEX 01 00:58:30
  TRACK 61 AUDIO
    TITLE "0:"
    INDEX 01 00:59:65
  TRACK 62 AUDIO
    TITLE "2:cjc152_2558"
    INDEX 01 01:00:59
  TRACK 63 AUDIO
    TITLE "0:"
    INDEX 01 01:01:62
  TRACK 64 AUDIO
    TITLE "2:cjc152_2559"
    INDEX 01 01:02:18
  TRACK 65 AUDIO
    TITLE "0:"
    INDEX 01 01:03:61
  TRACK 66 AUDIO
    TITLE "2:cjc152_2560"
    INDEX 01 01:04:54
  TRACK 67 AUDIO
    TITLE "0:"
    INDEX 01 01:06:00
  TRACK 68 AUDIO
    TITLE "2:cjc152_2561"
    INDEX 01 01:06:32
  TRACK 69 AUDIO
    TITLE "0:"
    INDEX 01 01:08:05
  TRACK 70 AUDIO
    TITLE "2:cjc152_2562"
    INDEX 01 01:08:72
  TRACK 71 AUDIO
    TITLE "0:"
    INDEX 01 01:09:63
  TRACK 72 AUDIO
    TITLE "2:cjc152_2563"
    INDEX 01 01:10:20
  TRACK 73 AUDIO
    TITLE "0:"
    INDEX 01 01:11:68
  TRACK 74 AUDIO
    TITLE "2:cjc152_2564"
    INDEX 01 01:12:60
  TRACK 75 AUDIO
    TITLE "0:"
    INDEX 01 01:13:59
  TRACK 76 AUDIO
    TITLE "2:cjc152_2565"
    INDEX 01 01:14:16
  TRACK 77 AUDIO
    TITLE "0:"
    INDEX 01 01:15:46
  TRACK 78 AUDIO
    TITLE "2:cjc152_2566"
    INDEX 01 01:16:38
  TRACK 79 AUDIO
    TITLE "0:"
    INDEX 01 01:17:45
  TRACK 80 AUDIO
    TITLE "2:cjc152_2567"
    INDEX 01 01:18:02
  TRACK 81 AUDIO
    TITLE "0:"
    INDEX 01 01:19:27
  TRACK 82 AUDIO
    TITLE "2:cjc152_2568"
    INDEX 01 01:20:16
  TRACK 83 AUDIO
    TITLE "0:"
    INDEX 01 01:21:39
  TRACK 84 AUDIO
    TITLE "2:cjc152_2569"
    INDEX 01 01:21:70
  TRACK 85 AUDIO
    TITLE "0:"
    INDEX 01 01:23:16
  TRACK 86 AUDIO
    TITLE "2:cjc152_2570"
    INDEX 01 01:24:10
  TRACK 87 AUDIO
    TITLE "0:"
    INDEX 01 01:25:33
  TRACK 88 AUDIO
    TITLE "2:cjc152_2571"
    INDEX 01 01:25:64
  TRACK 89 AUDIO
    TITLE "0:"
    INDEX 01 01:27:16
  TRACK 90 AUDIO
    TITLE "2:cjc152_2572"
    INDEX 01 01:28:06
  TRACK 91 AUDIO
    TITLE "0:"
    INDEX 01 01:29:39
  TRACK 92 AUDIO
    TITLE "2:cjc152_2573"
    INDEX 01 01:30:05
  TRACK 93 AUDIO
    TITLE "0:"
    INDEX 01 01:31:38
  TRACK 94 AUDIO
    TITLE "2:cjc152_2574"
    INDEX 01 01:32:29
  TRACK 95 AUDIO
    TITLE "0:"
    INDEX 01 01:33:33
  TRACK 96 AUDIO
    TITLE "2:cjc152_2575"
    INDEX 01 01:34:06
  TRACK 97 AUDIO
    TITLE "0:"
    INDEX 01 01:35:26
